<?xml version="1.0" encoding="utf-8"?>
<!-- Generator: Adobe Illustrator 25.3.1, SVG Export Plug-In . SVG Version: 6.00 Build 0)  -->
<svg version="1.1" id="图层_1" xmlns="http://www.w3.org/2000/svg" xmlns:xlink="http://www.w3.org/1999/xlink" x="0px" y="0px"
	 viewBox="0 0 907.5 151.4" style="enable-background:new 0 0 907.5 151.4;" xml:space="preserve">
<style type="text/css">
	.st0{fill:none;}
	.st1{fill:#545459;}
	.st2{fill:#51555A;}
</style>
<g>
	<path class="st0" d="M877.2,32.7c-7.5,0-13.7,6.1-13.7,13.7c0,7.5,6.1,13.7,13.7,13.7c7.5,0,13.7-6.1,13.7-13.7
		C890.8,38.8,884.7,32.7,877.2,32.7z M883.1,55.6l-2.5-3.9c-0.7-1.1-1.3-2-1.8-2.6s-0.9-1-1.3-1.3c-0.4-0.2-0.7-0.4-1.1-0.5
		c-0.3-0.1-0.7-0.1-1.4-0.1h-2.9v8.4h-2.5V36.8h8.3c1.7,0,2.9,0.2,3.8,0.5c0.9,0.3,1.6,0.9,2.1,1.8s0.8,1.8,0.8,2.8
		c0,1.3-0.4,2.5-1.3,3.4s-2.2,1.5-4,1.7c0.7,0.3,1.2,0.6,1.5,0.9c0.7,0.7,1.4,1.5,2.1,2.5l3.3,5.1L883.1,55.6L883.1,55.6z"/>
	<path class="st0" d="M881.7,43.6c0.3-0.5,0.5-1.1,0.5-1.7c0-0.9-0.3-1.6-1-2.2c-0.6-0.6-1.7-0.9-3-0.9h-5.9V45h5.3
		c1.1,0,2-0.1,2.7-0.4C880.9,44.5,881.3,44.2,881.7,43.6z"/>
	<path class="st1" d="M877.2,30.1c-9,0-16.2,7.3-16.2,16.2c0,9,7.3,16.2,16.2,16.2c8.9,0,16.2-7.3,16.2-16.2S886.1,30.1,877.2,30.1z
		 M877.2,60c-7.5,0-13.7-6.1-13.7-13.7c0-7.5,6.1-13.7,13.7-13.7c7.5,0,13.7,6.1,13.7,13.7C890.8,53.9,884.7,60,877.2,60z"/>
	<path class="st1" d="M880.9,48c-0.3-0.3-0.8-0.6-1.5-0.9c1.8-0.2,3.1-0.8,4-1.7c0.9-0.9,1.3-2,1.3-3.4c0-1-0.3-2-0.8-2.8
		c-0.5-0.9-1.2-1.4-2.1-1.8c-0.9-0.3-2.1-0.5-3.8-0.5h-8.3v18.7h2.5v-8.3h2.9c0.6,0,1.1,0,1.4,0.1c0.4,0.1,0.8,0.3,1.1,0.5
		c0.4,0.2,0.8,0.7,1.3,1.3s1.1,1.5,1.8,2.6l2.5,3.9h3.1l-3.3-5.1C882.4,49.5,881.7,48.7,880.9,48z M877.6,45.1h-5.3v-6.2h5.9
		c1.4,0,2.4,0.3,3,0.9c0.6,0.6,1,1.3,1,2.2c0,0.6-0.2,1.2-0.5,1.7s-0.8,0.9-1.5,1.1C879.6,45,878.7,45.1,877.6,45.1z"/>
	<path class="st1" d="M776.3,98.1L776.3,98.1c0,0.3-0.1,0.8-0.3,1.1C776.2,98.9,776.3,98.5,776.3,98.1z"/>
	<path class="st1" d="M647.3,59.6h4.1c1.8,0,3.2-1.4,3.2-3.2v-3.6c0-1.8,1.4-3.2,3.2-3.2h67.6c1.8,0,3.2,1.4,3.2,3.2v3.6
		c0,1.8,1.4,3.2,3.2,3.2h4.1c1.8,0,3.2-1.4,3.2-3.2V43.5c0-1.8-1.4-3.2-3.2-3.2h-35.7c-1.5,0-2.8-1-3.2-2.5l-0.1-0.3
		c-0.4-1.5-1.7-2.5-3.2-2.5h-9.3l1.3,5.3h-38.5c-1.8,0-3.2,1.4-3.2,3.2v12.9C644.1,58.2,645.5,59.6,647.3,59.6z"/>
	<path class="st1" d="M736.2,68.6h-62.5c-2.2,0-3.8-2.2-3.1-4.3l0.3-0.8c0.7-2.1-0.9-4.3-3.1-4.3h-4.5c-1.4,0-2.6,0.9-3.1,2.2
		l-1.6,5c-0.4,1.3-1.7,2.2-3.1,2.2h-8c-1.8,0-3.2,1.4-3.2,3.2V75c0,1.8,1.4,3.2,3.2,3.2h3.1c2.2,0,3.8,2.2,3,4.3l-3.9,10.8
		c-0.6,1.7,0.3,3.6,2,4.1l24.6,8.6l-28.1,9.6c-1.3,0.4-2.2,1.7-2.2,3.1v3.2c0,2.2,2.1,3.8,4.2,3.1l40.7-13.3c0.6-0.2,1.3-0.2,2,0
		l41.6,13c2.1,0.6,4.2-0.9,4.2-3.1v-3.2c0-1.4-0.9-2.6-2.2-3.1l-30-9.6l24.4-8.9c1.3-0.5,2.1-1.7,2.1-3V81.6c0-1.8,1.5-3.3,3.3-3.3
		l0,0c1.8,0,3.3-1.5,3.3-3.3v-3.1C739.4,70.1,738,68.6,736.2,68.6z M721.8,87.5c0,1.4-0.8,2.6-2.1,3l-26.7,9.8
		c-0.7,0.3-1.4,0.3-2.1,0l-28.4-9.5l4.2-12.5h51.9c1.8,0,3.2,1.4,3.2,3.2V87.5z"/>
	<path class="st1" d="M847.6,77.4h-36.2c-1.9,0-3.4,1.5-3.4,3.4v28.9h39.6c1.9,0,3.4-1.5,3.4-3.4V80.8
		C851,78.9,849.5,77.4,847.6,77.4z M840,96.6c0,1.9-1.5,3.4-3.4,3.4h-17.7v-9.6c0-1.9,1.5-3.4,3.4-3.4h14.3c1.9,0,3.4,1.5,3.4,3.4
		V96.6z"/>
	<path class="st1" d="M814.9,73.2c1.4,0,2.6-0.8,3.2-2.1l8.8-21.9c0.5-1.3,1.8-2.1,3.2-2.1h10.4L839.8,59c-0.1,1.8-1.6,3.2-3.4,3.2
		h-2.3c-2.5,0-4.1,2.6-3.1,4.8l2.2,4.9h14c1.8,0,3.4-1.5,3.4-3.3l0.7-27.2c0-1.9-1.5-3.5-3.4-3.5h-38.4c-1.9,0-3.4,1.5-3.4,3.4v2.4
		c0,1.9,1.5,3.4,3.4,3.4h6.9l-10.8,26.1C805.6,73.2,814.9,73.2,814.9,73.2z"/>
	<path class="st1" d="M849.6,116.5h-55.9c-0.7,0-1.5-0.2-2-0.7l-3-2.3c-0.9-0.6-1.4-1.7-1.4-2.7v-10.7c0-1.9,1.5-3.4,3.4-3.4h6.8
		c1.9,0,3.4-1.5,3.4-3.4v-2.9c0-1.9-1.5-3.4-3.4-3.4h-6.8c-1.9,0-3.4-1.5-3.4-3.4v-7.2c0-1.9,1.5-3.4,3.4-3.4h9
		c1.9,0,3.4-1.5,3.4-3.4v-2.4c0-1.9-1.5-3.4-3.4-3.4h-12.1c-1.9,0-3.4-1.5-3.4-3.4v-5.9c0-1.9,1.5-3.4,3.4-3.4h9.9
		c1.9,0,3.4-1.5,3.4-3.4v-2.9c0-1.9-1.5-3.4-3.4-3.4h-9.9c-1.9,0-3.4-1.5-3.4-3.4s-1.5-3.4-3.4-3.4h-3.7c-1.9,0-3.4,1.5-3.4,3.4
		s-1.5,3.4-3.4,3.4h-9.4c-1.9,0-3.4,1.5-3.4,3.4v2.9c0,1.9,1.5,3.4,3.4,3.4h12.8v9.3c0,1.9-1.5,3.4-3.4,3.4h-11.2
		c-1.9,0-3.4,1.5-3.4,3.4v2.4c0,1.9,1.5,3.4,3.4,3.4h17.2v24.4c0,0.1,0.1,0.2,0.1,0.3s-0.1,0.2-0.1,0.3v0.1c0,0.4-0.1,0.8-0.3,1.1
		c-0.1,0.1-0.1,0.2-0.2,0.4c-0.1,0.2-0.2,0.3-0.3,0.4c-0.8,1.1-2,1.8-3.4,1.8c-2.3,0-4.2-1.9-4.2-4.2v-0.1c0-0.2,0-0.5,0-0.7v-9.9
		c0-1.9-1.5-3.4-3.4-3.4h-3.7c-1.9,0-3.4,1.5-3.4,3.4v12.2c0,0.1,0,0.2,0,0.3l-2.6,26.5h6.6c1.7,0,3.2-1.3,3.4-3.1l0.8-7.8
		c0.3-2.7,3.4-4,5.5-2.3l15.7,12.4c0.6,0.5,1.3,0.7,2.1,0.7h60c1.6,0,3-1.1,3.3-2.6l0.6-2.7C853.4,118.5,851.8,116.5,849.6,116.5z"
		/>
	<path class="st1" d="M776.4,97.7c0-0.1-0.1-0.2-0.1-0.3V98C776.3,97.9,776.4,97.8,776.4,97.7z"/>
</g>
<path class="st0" d="M372.8,81.2c-2.6-10.8-9.6-17-19.4-17c-9.3,0-17,6.6-19.7,16.9l-0.8,3h40.6L372.8,81.2z"/>
<path class="st1" d="M185.5,63.7c0-2.9-1.7-5.2-5.1-7c-3.5-1.9-7.2-2.8-11-2.8c-3.7,0-6.7,0.9-8.8,2.7c-1.4,1.2-2.8,2.8-4.2,4.7
	l-3.3,4.5l-1.2-5.5c-0.4-1.6-0.9-2.9-1.6-3.9c-0.4-0.6-1.8-2.6-6-2.6c-2,0-8.2,0-8.2,11.7l-0.1,37c-1.3,4.5-5.5,7.5-10.7,7.5
	c-4.7,0-8.7-3.5-10.8-9.5L92.1,44.6c-1.2-3.3-2.2-5.8-3-7.8c-0.7-1.9-1.7-3.6-2.8-5.3c-1.1-1.6-2.5-2.9-4.3-3.9s-4-1.5-6.6-1.5h-0.3
	c-2.4,0-4.6,0.5-6.3,1.5c-1.8,1-3.2,2.3-4.3,3.9c-1.1,1.7-2.2,3.8-3.2,6.3l-28.4,71.4c-1.1,2.6-1.8,4.6-2.3,6
	c-0.4,1.4-0.7,2.7-0.7,4c0,2.1,0.9,4,2.6,5.7c1.8,1.7,3.8,2.6,6.2,2.6c4.1,0,5.4-1.7,5.8-2.3c1.3-1.7,2.8-5,4.7-9.9l5-13.3l41.7,0.2
	l2.8,7.8c0.4,1.4,0.8,2.5,1.3,3.8l0.8,1.6c4.3,8,12.4,12,24.1,12c8.5,0,16-2.8,21.1-7.9c4.3-4.3,6.7-10.2,6.8-17l0.1-1.1
	c0-5.3,0.2-10.1,0.5-14c0.4-4,1.1-7.4,2-10.2c1-2.9,2.4-5.2,4.3-6.7c3.3-2.7,8.1-3.1,14.4-1c2.4,0.8,4.1,1.2,4.7,1.2
	c1.6,0,3.1-0.6,4.5-2C184.8,67.4,185.5,65.7,185.5,63.7z M91.3,88.7H59.1L75,44.2L91.3,88.7z"/>
<path class="st1" d="M240.9,105c-1.5,0-2.8,0.6-4,1.7c-5.6,5.3-11.5,7.9-18,7.9c-13.2,0-23.5-11.1-23.5-25.2
	c0-13.9,10-24.8,22.8-24.8c8,0,13.2,3.8,17.7,7.9c1.1,0.9,2.7,1.5,4.2,1.5c3.6,0,6.5-2.9,6.5-6.5c0-2.4-1.3-4.1-2-4.7
	c-7.8-7.1-16.2-10.4-26.3-10.4c-20.2,0-36.6,16.8-36.6,37.5c0,20.4,16.4,37,36.6,37c10.5,0,19.1-3.6,26.9-11.4
	c1.1-1.1,1.8-2.7,1.8-4.3C247.2,107.9,244.3,105,240.9,105z"/>
<path class="st1" d="M287,52.4c-6.9,0-12.9,2-17.8,5.9l-4,3.2V31.9c0-3.7-3-6.8-6.8-6.8c-3.5,0-6.6,3.2-6.6,6.8v87.4
	c0,3.9,2.9,6.8,6.8,6.8c3.8,0,6.6-2.9,6.6-6.8V84.7c0-11.6,7.7-19.8,18.8-19.8c10.8,0,17.2,7.1,17.2,19v35.4c0,3.9,2.9,6.8,6.8,6.8
	c3.8,0,6.6-2.9,6.6-6.8V81.4C314.8,63.8,303.9,52.4,287,52.4z"/>
<path class="st1" d="M353.7,52.4c-19.3,0-34.4,16.4-34.4,37.4c0,21.2,15.3,37.1,35.7,37.1c10.8,0,19.1-3.3,26.7-10.6
	c1.5-1.3,2.2-2.9,2.2-4.6c0-3.3-2.7-6-6.1-6c-2.1,0-3.5,1.2-4.1,1.7c-5.4,5-11.4,7.4-18.5,7.4c-10.5,0-18.7-6.4-21.5-16.8l-0.8-3.1
	h47.7c3.5,0,6.4-2.9,6.4-6.4C387,70.6,375.5,52.4,353.7,52.4z M333.7,81.2c2.7-10.3,10.4-16.9,19.7-16.9c9.8,0,16.9,6.2,19.4,17
	l0.7,3h-40.6L333.7,81.2z"/>
<path class="st1" d="M432.6,53c-6,0-12.5,3.1-17.7,8.4l-4,4.1l-0.2-5.7c-0.1-3.7-3-6.5-6.8-6.5c-3.7,0-6.6,3-6.6,6.8v59.3
	c0,3.9,2.9,6.8,6.8,6.8c3.8,0,6.6-2.9,6.6-6.8V96c0-16.8,8.5-27.8,22.7-29.6c3.4-0.5,5.8-3.3,5.8-6.7C439.3,55.8,436.5,53,432.6,53z
	"/>
<path class="st2" d="M492,26.4c10.1,0,18.8,2.1,26.1,6.2s12.7,9.9,16.5,17.5c3.7,7.6,5.6,16.4,5.6,26.7c0,7.5-1,14.4-3.1,20.6
	c-2,6.2-5.1,11.5-9.2,16c-4.1,4.5-9.1,8-15,10.4c-5.9,2.4-12.8,3.6-20.4,3.6s-14.5-1.2-20.5-3.7s-11.1-5.9-15.1-10.4
	s-7.1-9.9-9.2-16.2c-2.1-6.3-3.1-13.1-3.1-20.4c0-7.5,1.1-14.4,3.2-20.6c2.2-6.3,5.3-11.6,9.3-16c4.1-4.4,9.1-7.8,14.9-10.1
	C477.9,27.5,484.5,26.4,492,26.4z M520.1,76.5c0-7.1-1.2-13.3-3.5-18.6c-2.3-5.3-5.6-9.2-9.9-11.9c-4.3-2.7-9.2-4-14.7-4
	c-3.9,0-7.6,0.7-10.9,2.2s-6.2,3.6-8.6,6.5c-2.4,2.8-4.3,6.5-5.7,10.9c-1.4,4.4-2.1,9.4-2.1,14.9s0.7,10.6,2.1,15
	c1.4,4.5,3.4,8.2,5.9,11.1c2.6,2.9,5.5,5.2,8.8,6.6c3.3,1.5,6.9,2.2,10.9,2.2c5.1,0,9.7-1.3,13.9-3.8c4.2-2.5,7.6-6.4,10.1-11.7
	C518.8,90.8,520.1,84.3,520.1,76.5z"/>
<path class="st2" d="M627.1,96.3c0,5.9-1.5,11.2-4.6,15.9c-3,4.7-7.5,8.4-13.3,11c-5.9,2.7-12.8,4-20.8,4c-9.6,0-17.6-1.8-23.8-5.5
	c-4.4-2.6-8-6.1-10.8-10.5s-4.2-8.6-4.2-12.7c0-2.4,0.8-4.4,2.5-6.2c1.7-1.7,3.8-2.6,6.4-2.6c2.1,0,3.8,0.7,5.3,2
	c1.4,1.3,2.7,3.3,3.7,5.9c1.2,3.1,2.6,5.7,4,7.8c1.4,2.1,3.5,3.8,6.1,5.2c2.6,1.4,6.1,2,10.3,2c5.9,0,10.6-1.4,14.3-4.1
	s5.5-6.1,5.5-10.2c0-3.2-1-5.9-3-7.9s-4.5-3.6-7.7-4.6c-3.1-1.1-7.3-2.2-12.5-3.4c-7-1.6-12.9-3.6-17.6-5.8c-4.7-2.2-8.5-5.2-11.2-9
	c-2.8-3.8-4.2-8.5-4.2-14.1c0-5.4,1.5-10.1,4.4-14.3c2.9-4.2,7.2-7.4,12.7-9.6s12.1-3.4,19.6-3.4c6,0,11.2,0.7,15.5,2.2
	c4.4,1.5,8,3.5,10.9,5.9c2.9,2.5,5,5,6.3,7.8c1.3,2.7,2,5.3,2,7.9c0,2.4-0.8,4.5-2.5,6.4s-3.7,2.8-6.2,2.8c-2.3,0-4-0.6-5.2-1.7
	c-1.2-1.1-2.5-3-3.8-5.6c-1.8-3.7-3.9-6.6-6.4-8.6c-2.5-2.1-6.5-3.1-12-3.1c-5.1,0-9.2,1.1-12.3,3.4c-3.1,2.2-4.7,4.9-4.7,8.1
	c0,2,0.5,3.6,1.6,5.1c1.1,1.4,2.5,2.6,4.4,3.7c1.9,1,3.7,1.8,5.7,2.4c1.9,0.6,5.1,1.4,9.5,2.5c5.5,1.3,10.5,2.7,14.9,4.3
	c4.5,1.6,8.3,3.4,11.4,5.7c3.1,2.2,5.6,5,7.3,8.4C626.3,87.2,627.1,91.4,627.1,96.3z"/>
</svg>
